<svg width="188" height="40" viewBox="0 0 188 40" fill="none" xmlns="http://www.w3.org/2000/svg">
<path fill-rule="evenodd" clip-rule="evenodd" d="M187.103 10.7974H187.963L174.808 40.0001H173.949L187.103 10.7974Z" fill="#939393"/>
<path d="M126.146 18.2307H111.25V18.4671H126.146V18.2307Z" fill="#939393"/>
<path fill-rule="evenodd" clip-rule="evenodd" d="M71.1504 4.99634H72.0107L62.5859 31.2018H61.7256L71.1504 4.99634Z" fill="#939393"/>
<path fill-rule="evenodd" clip-rule="evenodd" d="M59.1543 4.99634H60.0146L50.5898 31.2018H49.7295L59.1543 4.99634Z" fill="#939393"/>
<path d="M45.1726 28.0157C46.2662 30.583 47.4074 31.2018 49.5962 31.2018H50.0723L53.9261 20.5013L57.2084 28.0157C58.3036 30.583 59.3972 31.2018 61.586 31.2018H62.0621L71.5758 4.99631H71.0536L62.8224 27.8253L56.5434 13.3184L59.54 4.99631H59.0639L56.2577 12.7012L54.307 8.18235C53.2118 5.61511 52.0706 4.99631 49.8819 4.99631H47.1709L53.6404 19.8825L50.7866 27.8253L42.2696 8.18235C41.176 5.61511 40.0809 4.99631 37.8937 4.99631H35.1335L45.1726 28.0157ZM74.5741 4.99631C74.5741 6.51793 75.62 7.56355 77.1438 7.56355C78.7135 7.56355 79.7595 6.51793 79.7595 4.99631C79.7595 3.42709 78.7135 2.42749 77.1438 2.42749C75.62 2.42749 74.5741 3.42709 74.5741 4.99631ZM74.4788 27.9205C74.4788 30.821 76.7152 31.2018 78.7135 31.2018H79.7119V14.08C79.7119 11.1796 77.4279 10.7988 75.4772 10.7988H74.4788V27.9205ZM98.5044 27.9205C98.5044 30.821 100.741 31.2018 102.691 31.2018H103.737V16.4584C103.737 12.3204 101.455 10.3228 97.5537 10.3228C94.6983 10.3228 92.4619 11.4636 90.3224 13.2248L89.7986 13.6992C89.6081 11.132 87.467 10.7988 85.5639 10.7988H84.5656V27.9205C84.5656 30.821 86.8019 31.2018 88.7986 31.2018H89.7986V14.2704C91.2287 13.0614 92.8619 11.6064 94.8411 11.6064C96.7442 11.6064 98.5044 13.0344 98.5044 16.506V27.9205ZM126.146 18.2656C125.719 12.7488 121.151 10.3228 117.011 10.3228C111.969 10.3228 106.64 13.5088 106.64 20.9757C106.64 27.7777 111.778 31.6302 116.726 31.6302C120.484 31.6302 124.149 29.4422 125.576 24.7805C124.338 26.8733 122.293 27.9205 120.152 27.9205C114.776 27.9205 111.683 23.1637 111.635 18.2656H126.146ZM111.635 17.7896C111.778 12.7964 114.348 10.7988 116.821 10.7988C119.248 10.7988 121.294 12.606 121.294 15.032C121.294 15.8396 121.151 16.8868 120.627 17.7896H111.635ZM141.18 28.7758C141.18 30.7258 138.991 31.1542 137.421 31.2018C133.615 31.2494 130.333 28.871 128.525 25.5897V29.3946C130.476 30.6306 133.472 31.6778 137.042 31.6778C141.227 31.6778 145.081 30.1546 145.081 26.1117C145.081 20.1205 132.093 16.9804 132.093 13.2708C132.093 11.7492 133.615 10.7988 135.518 10.7988C138.183 10.7988 141.703 12.368 143.511 15.9348V12.13C141.799 11.0844 138.897 10.3228 136.042 10.3228C132.188 10.3228 128.525 11.7968 128.525 15.792C128.525 21.5945 141.18 24.2109 141.18 28.7758ZM160.591 28.7758C160.591 30.7258 158.402 31.1542 156.833 31.2018C153.027 31.2494 149.744 28.871 147.936 25.5897V29.3946C149.887 30.6306 152.884 31.6778 156.452 31.6778C160.639 31.6778 164.493 30.1546 164.493 26.1117C164.493 20.1205 151.504 16.9804 151.504 13.2708C151.504 11.7492 153.027 10.7988 154.93 10.7988C157.595 10.7988 161.115 12.368 162.923 15.9348V12.13C161.21 11.0844 158.307 10.3228 155.453 10.3228C151.6 10.3228 147.936 11.7968 147.936 15.792C147.936 21.5945 160.591 24.2109 160.591 28.7758ZM178.308 31.6349L187.661 10.7988H187.139L180.477 25.6849L173.579 13.0344C172.675 11.3684 172.057 10.7988 170.059 10.7988H166.396L177.765 31.6349H178.308Z" fill="#939393"/>
<path fill-rule="evenodd" clip-rule="evenodd" d="M0.703295 24.0824C1.31437 23.059 2.29685 22.3164 3.41901 21.9832C3.18093 20.8631 3.34758 19.6556 3.97929 18.5989C4.59037 17.5755 5.57126 16.8313 6.69183 16.4981C6.44423 15.3351 6.63945 14.1403 7.2537 13.1122C8.55997 10.9241 11.4439 10.1292 13.7105 11.4827C13.9565 11.6286 14.185 11.7968 14.3977 11.9809C15.9246 10.6401 18.1451 10.4085 19.9196 11.4684C20.6926 11.9285 21.2862 12.579 21.6751 13.3232C21.7163 13.1614 21.756 12.9932 21.7894 12.8155C21.983 11.7984 21.9846 10.61 21.7306 9.56119C21.5449 8.72978 21.2545 7.87139 20.7815 7.15897C20.5545 6.81466 20.2783 6.50844 19.9609 6.2752C19.8958 6.91938 19.7085 7.72859 19.4292 8.38706C18.4769 10.6068 16.6182 11.0495 15.3612 10.3402C13.847 9.48027 13.7057 7.30653 15.3564 5.66274C16.2183 4.80594 17.4134 4.27758 18.634 4.29979C18.1864 3.21133 17.1928 2.42117 16.1564 1.87377C15.277 1.41046 14.1787 1.01855 13.1486 0.815456C12.9311 0.772616 12.7851 0.564762 12.8216 0.345802C12.8581 0.120494 13.0708 -0.0318264 13.2946 0.00466708C14.4453 0.195068 15.631 0.585389 16.577 1.04711C18.088 1.7865 19.372 2.89717 19.8212 4.50447C20.7481 4.81546 21.5052 5.4533 22.0766 6.26885C22.683 7.13517 23.0718 8.1554 23.3289 9.18198C23.7099 10.6147 23.7607 11.9269 23.6067 13.1011C23.5178 13.7706 23.3623 14.4354 23.1321 15.1019C24.8606 14.6639 26.77 14.794 28.7842 15.5001C29.3127 15.6857 29.5905 16.2649 29.4048 16.7948C29.2191 17.3232 28.6397 17.6024 28.1112 17.4168C26.3065 16.7837 24.6717 16.7076 23.2274 17.1867C25.1606 18.6036 25.7383 21.293 24.486 23.3938C23.8734 24.4188 22.8925 25.1614 21.7703 25.4946C22.0116 26.6385 21.8227 27.8523 21.2084 28.8789C20.364 30.2942 18.8133 31.1733 17.1626 31.1733C16.0516 31.1733 14.9453 30.7766 14.0676 30.0102C12.5629 31.3303 10.3456 31.5969 8.5441 30.5227C8.29809 30.3752 8.07111 30.2086 7.8616 30.0261C6.34265 31.3684 4.10309 31.5921 2.33494 30.5354C0.098569 29.2042 -0.629959 26.3164 0.703295 24.0824ZM16.3405 6.67186C15.5707 7.39539 15.1167 8.66314 16.0119 9.21847C16.65 9.60721 17.6896 9.35493 18.353 7.91105C18.6102 7.35413 18.8435 6.4894 18.8816 5.81347C17.9832 5.66433 17.0103 6.03719 16.3405 6.67186ZM12.6677 13.2248C11.382 12.4585 9.74086 12.9075 8.99804 14.153C8.10445 15.6477 8.85678 17.5866 10.5297 18.088C11.1265 17.3295 11.9693 16.7599 12.9026 16.4823C12.7026 15.5318 12.8042 14.5211 13.1914 13.6326C13.0359 13.4755 12.8613 13.3406 12.6677 13.2248ZM18.8784 13.2121C17.5975 12.4473 15.9564 12.8869 15.2088 14.1403C14.8215 14.7877 14.7215 15.5985 14.9659 16.3458C16.1659 16.5346 17.2452 17.182 17.9785 18.1435C18.7181 18.015 19.426 17.5628 19.8514 16.8012C20.5434 15.5461 20.1212 13.9515 18.8784 13.2121ZM20.4148 23.6572C20.4228 23.6572 20.4307 23.6572 20.4386 23.6572C21.3926 23.6572 22.2544 23.1701 22.7417 22.3529C23.4972 21.0852 23.0813 19.4382 21.8147 18.683C21.6211 18.5687 21.4195 18.4799 21.21 18.4164C20.6307 19.1526 19.7911 19.7429 18.8371 20.0221C19.0371 20.9773 18.9419 21.969 18.5483 22.8734C19.0308 23.3557 19.6958 23.6477 20.4053 23.6556C20.4085 23.6556 20.4117 23.6556 20.4148 23.6572ZM17.1626 29.1423C18.1166 29.1423 18.9768 28.6552 19.4657 27.8381C19.8641 27.1685 19.9466 26.3593 19.7069 25.6294C18.8022 25.4866 17.9832 25.0836 17.3452 24.5283C16.8309 24.9836 16.2214 25.3184 15.5611 25.512C15.7596 26.4624 15.6596 27.462 15.277 28.3506C15.2755 28.3521 15.2755 28.3553 15.2739 28.3585C15.7675 28.8535 16.45 29.1423 17.1626 29.1423ZM16.0532 22.9591C16.0532 22.9575 16.0548 22.9575 16.0548 22.9559C17.1611 21.9261 17.1849 20.203 16.1595 19.1383C16.1564 19.1352 16.1532 19.132 16.15 19.1288C15.0453 17.9912 13.2502 18.0832 12.2344 19.2161C11.2471 20.3157 11.3598 22.0055 12.4375 22.9797C12.4375 22.9797 12.4375 22.9813 12.4391 22.9813C13.4771 23.919 15.0501 23.8904 16.0532 22.9591ZM9.58531 28.779C10.8662 29.5437 12.5074 29.1058 13.2549 27.8539C13.6613 27.1717 13.7311 26.3514 13.4962 25.6453C12.2756 25.4517 11.2027 24.7869 10.4868 23.8476C9.72181 23.9809 9.02185 24.4489 8.61711 25.1804C8.61711 25.182 8.61553 25.182 8.61553 25.182C7.91874 26.4386 8.33935 28.0364 9.58531 28.779ZM9.6234 21.9706C9.47897 21.2978 9.48532 20.6028 9.64245 19.9317C8.83456 19.627 8.09492 19.0939 7.55051 18.3767C6.795 18.5148 6.12202 18.9717 5.72363 19.6397C4.83956 21.1185 5.57126 23.0685 7.2537 23.5731C7.85367 22.8099 8.70759 22.2419 9.6234 21.9706ZM3.37457 28.7917C4.44911 29.4327 5.79823 29.2391 6.64739 28.3791C6.22202 27.4144 6.14901 26.3672 6.36963 25.4184C5.53317 25.1042 4.79988 24.5489 4.27769 23.8619C3.52059 23.9983 2.84603 24.4569 2.44764 25.1233C1.69213 26.391 2.10004 28.0332 3.37457 28.7917Z" fill="#939393"/>
</svg>
