<svg width="100" height="106" viewBox="0 0 100 106" fill="none" xmlns="http://www.w3.org/2000/svg">
<g clip-path="url(#clip0)">
<path d="M29.0486 19.56C29.0486 19.56 28.7493 19.4409 28.515 18.9063C28.277 18.3755 28.3347 18.5524 28.1003 18.0179C27.8624 17.4834 27.747 17.5448 27.8047 17.1873C27.8624 16.8333 27.5667 17.0103 27.8624 16.8333C28.1616 16.6564 28.1003 16.7755 28.2193 16.4758C28.3347 16.1796 28.4573 16.595 28.3347 16.1796C28.2193 15.7679 28.7493 16.2988 28.2193 15.7679C27.6857 15.2334 28.1003 15.1142 27.4513 15.172C26.7987 15.2334 27.0367 15.172 26.5644 15.349C26.0884 15.5296 25.7351 15.2912 25.3781 15.2912C25.0212 15.2912 25.0212 15.0528 24.7868 15.1142C24.5489 15.172 24.6678 15.4682 24.3145 15.1142C23.9575 14.7567 24.0188 14.6989 23.6619 14.5797C23.3085 14.4606 23.4852 14.1066 23.3085 14.4606C23.1319 14.8181 22.7172 14.522 23.1319 14.8181C23.5429 15.1142 23.4275 15.1142 23.5429 15.4104C23.6619 15.7065 23.7809 15.6488 23.7232 16.0605C23.6619 16.4758 23.7809 16.5372 23.6042 16.6564C23.4275 16.7755 23.4275 16.6564 23.5429 17.1295C23.6619 17.6026 23.6619 17.4834 23.7232 17.9601C23.7809 18.4332 23.6042 18.3755 23.8386 18.6716C24.0765 18.9677 24.0765 18.9063 24.2532 19.1447C24.4335 19.3795 24.4912 19.3217 24.5489 19.6792C24.6101 20.0331 24.6101 20.2101 24.7868 20.3871C24.9635 20.5677 24.5489 20.3871 24.9635 20.5677C25.3781 20.7446 25.7351 20.8024 25.4358 20.983C25.1438 21.1599 25.0825 21.2177 25.0825 21.7522C25.0825 22.2867 25.0212 22.1676 25.0212 22.6407C25.0212 23.1138 24.8481 23.1752 25.0825 23.2944C25.3204 23.4135 25.4971 23.1138 25.3204 23.6483C25.1438 24.1828 25.3781 24.125 25.2015 24.4789C25.0212 24.8329 24.7291 24.8943 24.8481 25.1904C24.9635 25.4866 24.7868 25.1904 25.0212 25.7827C25.2591 26.375 25.1438 26.2558 25.3781 26.7325C25.6161 27.2056 25.3781 27.2056 25.7928 27.3248C26.2074 27.444 26.3841 27.2634 26.3841 27.5596C26.3841 27.8593 26.741 27.7365 26.3841 27.8593C26.0307 27.9749 26.1461 27.9171 25.8541 28.0363C25.5548 28.1519 26.2074 28.3902 25.5548 28.1519C24.9058 27.9171 25.4358 27.7979 24.9058 27.9171C24.3722 28.0363 24.6101 28.2133 24.0188 28.1519C23.4275 28.0941 23.4852 28.4516 23.1896 28.0363C22.8939 27.621 22.8362 28.2133 22.8939 27.621C22.9516 27.0287 23.3662 26.8481 22.8939 26.8481C22.418 26.8481 22.1259 26.7903 22.1259 26.7903C21.7113 26.9095 21.5923 26.552 21.4733 26.9673C21.3543 27.3826 21.0587 26.8481 21.3543 27.3826C21.65 27.9171 21.4156 27.621 21.7113 28.0941C22.0069 28.5672 21.9456 28.8633 21.9456 28.8633C21.9456 28.8633 21.888 29.3401 21.7113 29.1017C21.5346 28.8633 21.769 28.9825 21.65 28.6864C21.5346 28.3902 21.4156 28.5094 21.3543 28.1519C21.2966 27.7979 21.4733 27.9749 21.2353 27.621C21.001 27.2634 21.3543 26.9095 21.001 27.2634C20.644 27.621 21.0587 27.3248 20.644 27.621C20.2294 27.9171 20.1717 28.1519 19.995 27.8593C19.8148 27.5596 19.9337 27.7979 19.7571 27.3248C19.5804 26.8481 20.1104 26.6711 19.5804 26.8481C19.0468 27.0287 19.3424 27.2634 18.7511 27.1442C18.1598 27.0287 18.5168 26.6711 18.1598 27.0287C17.8065 27.3826 17.9218 27.3248 17.6262 27.5596C17.3305 27.7979 17.3918 27.8593 16.9772 28.0941C16.5625 28.3288 16.9772 28.4516 16.5625 28.3288C16.1479 28.2133 15.9712 28.0363 15.9712 28.0363C15.6756 27.5018 15.6756 27.621 15.5566 27.3248C15.4376 27.0287 15.6143 26.6133 15.0807 26.375C14.5506 26.1366 14.4317 26.3172 14.493 25.9019C14.5506 25.4866 14.904 25.5443 14.493 25.2482C14.0783 24.952 14.3127 25.3674 14.0783 24.952C13.8404 24.5367 13.4834 25.2482 13.5447 24.6559C13.6024 24.0636 14.3127 23.8253 13.7214 23.8866C13.1301 23.9444 13.4257 24.302 12.9534 24.125C12.4775 23.9444 12.5964 23.9444 12.1818 24.0636C11.7708 24.1828 12.3621 24.1828 11.7708 24.1828C11.1758 24.1828 11.5328 24.0058 10.9415 24.0636C10.3502 24.125 10.3502 23.7675 10.1699 24.302C9.99322 24.8329 10.2312 24.7751 9.99322 25.0134C9.75886 25.2482 9.99322 24.952 9.75886 25.2482C9.5209 25.5443 10.3502 25.6635 9.5209 25.5443C8.69162 25.4252 9.04857 25.4252 8.33467 25.3096C7.62798 25.1904 7.68567 24.7173 7.62798 25.1904C7.56669 25.6635 8.03901 26.2558 7.62798 25.9597C7.21334 25.6635 7.509 25.6635 7.21334 25.6635C6.91769 25.6635 6.85639 26.0211 6.85639 25.4866C6.85639 24.952 7.15205 25.0712 6.7987 24.7751C6.44536 24.4789 6.61842 24.2406 6.44536 24.4789C6.26508 24.7173 6.32637 24.6559 6.1461 24.952C5.96942 25.2482 6.44536 25.3096 5.96942 25.2482C5.4971 25.1904 5.79275 24.8943 5.25913 25.1904C4.72551 25.4866 5.25913 25.4866 4.72551 25.4866C4.19549 25.4866 4.49115 25.7249 4.19549 25.4866C3.89984 25.2482 4.43346 25.0712 3.89984 25.2482C3.36621 25.4252 3.66187 25.1904 3.36621 25.4252C3.07056 25.6635 3.4852 25.7249 3.07056 25.6635C2.65592 25.6057 2.7749 25.1904 2.47925 25.4252C2.18359 25.6635 2.47925 25.4866 2.18359 25.6635C1.88794 25.8405 2.18359 25.6635 2.18359 25.6635C2.18359 25.6635 1.76895 25.6057 1.88794 25.8405C2.00331 26.0788 2.41795 26.2558 2.06461 26.3172C1.70766 26.375 1.94563 26.2558 1.70766 26.198C1.4733 26.1366 1.64997 25.8405 1.23533 26.1366C0.820692 26.4328 0.763003 26.375 0.586331 26.552C0.406053 26.7325 0.467348 26.198 0.406053 26.7325C0.348364 27.2634 0.467348 26.8481 0.348364 27.2634C0.229381 27.6788 0.171692 27.2634 0.229381 27.6788C0.28707 28.0941 0.586331 28.0363 0.348364 28.271C0.110398 28.5094 -0.0662746 28.3902 0.110398 28.6864C0.28707 28.9825 0.28707 28.9825 0.586331 28.8633C0.881986 28.7442 0.763003 28.6864 1.11635 28.8633C1.4733 29.0439 1.4733 29.0439 1.76895 28.9247C2.06461 28.8055 1.94563 28.7442 2.36026 28.6864C2.7749 28.6286 2.53694 28.7442 3.07056 28.5094C3.60418 28.271 3.78085 28.0941 3.60418 28.271C3.4239 28.4516 3.60418 28.4516 3.18954 28.6864C2.7749 28.9247 2.47925 28.6864 2.7749 28.9247C3.07056 29.1595 2.95158 29.2787 3.24723 29.2209C3.54289 29.1595 3.60418 28.7442 3.72316 29.0439C3.83854 29.3401 3.66187 29.1595 3.78085 29.517C3.89984 29.8709 3.66187 29.4592 3.89984 29.8709C4.1342 30.2863 4.1342 30.4632 3.89984 30.2863C3.66187 30.1093 4.31448 30.2863 3.66187 30.1093C3.01287 29.9323 3.54289 30.0515 3.01287 29.9323C2.47925 29.8132 2.83259 30.2285 2.47925 29.8132C2.1223 29.3978 2.53694 29.3401 2.1223 29.3978C1.70766 29.4592 1.94563 29.2209 1.70766 29.4592C1.4733 29.694 1.05866 29.3978 1.29663 29.7554C1.53099 30.1093 1.35431 29.8709 1.53099 30.1093C1.70766 30.3477 1.83025 29.7554 1.70766 30.3477C1.59228 30.94 1.23533 30.8208 1.59228 30.94C1.94563 31.0555 2.18359 30.8786 2.18359 30.8786C2.30258 30.6438 2.1223 30.7594 2.47925 30.5824C2.83259 30.4055 2.47925 29.9901 2.83259 30.4055C3.18954 30.8208 3.24723 30.5824 3.4239 30.94C3.60418 31.2939 3.83854 31.1783 3.83854 31.4709C3.83854 31.7706 4.07651 31.8284 3.54289 31.8862C3.01287 31.9476 3.4239 32.0054 2.7749 32.0054C2.1223 32.0054 2.30258 32.0054 1.76895 32.0668C1.23533 32.1245 1.29663 32.0668 0.881986 32.1245C0.467348 32.1823 0.64402 31.7092 0.467348 32.1823C0.28707 32.659 -0.36193 32.5399 0.28707 32.659C0.939675 32.7782 0.763003 32.5977 1.17764 32.836C1.59228 33.0744 1.64997 32.5977 1.88794 33.013C2.1223 33.4283 1.83025 33.0744 2.1223 33.4283C2.41795 33.7822 2.53694 33.9014 2.59823 34.259C2.65592 34.6129 2.95158 34.8512 2.7749 35.0896C2.59823 35.3244 2.24128 35.3858 2.53694 35.6205C2.83259 35.8589 2.7749 35.6205 3.13185 35.7397C3.4852 35.8589 3.54289 35.978 3.72316 35.8011C3.89984 35.6205 3.83854 36.0936 3.89984 35.6205C3.95753 35.1474 3.89984 34.9704 4.1342 35.0896C4.37216 35.2088 4.54884 35.2666 4.54884 35.0282C4.54884 34.7898 4.37216 34.9704 4.37216 34.6743C4.37216 34.3781 4.37216 34.4973 4.54884 34.1976C4.72551 33.9014 4.66782 33.4897 4.72551 33.9014C4.7868 34.3167 4.8481 33.8436 4.7868 34.3167C4.72551 34.7898 4.66782 34.7321 4.7868 34.9704C4.90579 35.2088 4.49115 34.9704 4.90579 35.2088C5.32043 35.4435 5.4358 35.8589 5.55479 35.4435C5.67377 35.0282 5.37811 35.0282 5.67377 35.0282C5.96942 35.0282 5.79275 34.7898 6.03072 35.2088C6.26508 35.6205 6.32637 35.4435 6.50305 35.7397C6.67972 36.0358 6.56074 35.978 6.91769 36.0936C7.27103 36.2164 7.27103 36.2742 7.39001 35.978C7.509 35.6819 7.27103 35.2666 7.509 35.6819C7.74696 36.0936 7.509 35.7397 7.74696 36.0936C7.98132 36.4512 7.86234 36.5089 8.21929 36.5703C8.57264 36.6281 8.57264 36.7473 8.86829 36.6895C9.16395 36.6281 9.10626 36.4512 9.22524 36.8087C9.34422 37.1626 9.16395 37.3396 9.40191 37.5166C9.63988 37.6971 9.63988 37.7549 9.93554 37.6357C10.2312 37.5166 10.2312 37.5779 10.4079 37.3396C10.5845 37.1048 10.9992 36.8087 10.7648 37.1626C10.5268 37.5166 10.4079 37.0434 10.5268 37.5166C10.6458 37.9933 10.6458 37.7549 10.8225 38.0511C10.9992 38.3472 10.5845 38.6433 10.9992 38.3472C11.4138 38.0511 11.3525 38.0511 11.5328 37.8127C11.7095 37.5779 11.5328 37.3396 11.7095 37.5779C11.8861 37.8127 12.1241 37.7549 11.8861 37.9933C11.6482 38.228 11.8861 37.8741 11.6482 38.228C11.4138 38.5856 11.2371 38.0511 11.4138 38.5856C11.5905 39.1165 11.7708 38.8817 11.6482 39.3548C11.5328 39.8315 11.5328 39.5932 11.5905 40.0085C11.6482 40.4238 11.4751 40.4816 11.7708 40.6008C12.0628 40.72 12.4198 41.0161 12.2431 40.6586C12.0628 40.3047 12.0051 40.4238 11.9474 40.0085C11.8861 39.5932 11.8285 39.8893 11.8861 39.5932C11.9474 39.297 11.4751 39.7701 11.8861 39.5932C12.3008 39.4126 12.3008 39.5932 12.4775 39.3548C12.6577 39.1165 12.5387 38.8203 12.6577 39.1165C12.7767 39.4126 12.4775 39.1779 12.7767 39.4126C13.0724 39.651 13.3067 39.7701 13.1877 39.474C13.0724 39.1779 13.1301 39.3548 13.0724 38.9431C13.0111 38.5278 12.8344 38.3472 13.0111 38.5278C13.1877 38.7047 13.0724 38.5278 13.2454 38.8817C13.4257 39.2356 13.0724 39.0587 13.4257 39.2356C13.7791 39.4126 13.3067 39.8315 13.7791 39.4126C14.255 39.0009 13.9593 38.8817 14.255 39.0009C14.5506 39.1165 14.493 39.0587 14.7273 39.1779C14.9653 39.297 14.6083 39.297 14.9653 39.297C15.3186 39.297 15.4953 38.9431 15.3186 39.297C15.142 39.651 15.6143 39.3548 15.142 39.651C14.6696 39.9471 15.023 40.0085 14.6696 39.9471C14.3127 39.8893 14.7273 39.8893 14.3127 39.8893C13.898 39.8893 14.1937 39.7124 13.898 39.8893C13.6024 40.0663 13.3067 39.651 13.6024 40.0663C13.898 40.4816 13.8404 40.4238 14.0783 40.5394C14.3127 40.6586 14.1937 40.6586 14.5506 40.5394C14.904 40.4238 15.2609 40.4816 15.4376 40.4238C15.6143 40.3624 15.6143 40.1855 15.9099 40.3624C16.2056 40.5394 16.1479 40.5394 16.5049 40.5394C16.8582 40.5394 16.5049 40.5394 17.0349 40.6008C17.5685 40.6586 17.2115 40.6008 17.5685 40.6586C17.9218 40.72 18.1021 40.9547 17.7452 40.9547C17.3918 40.9547 17.4495 40.6008 16.9772 40.8392C16.5049 41.0739 16.2056 40.5394 16.5049 41.0739C16.7969 41.6084 17.0962 41.3123 16.7969 41.6084C16.5049 41.9046 16.9159 41.6662 16.5049 41.9046C16.0902 42.1393 15.7333 41.6662 16.0902 42.1393C16.4436 42.616 16.6238 42.616 16.4436 42.793C16.2669 42.97 16.2669 42.97 16.0902 43.0891C15.9099 43.2083 15.791 43.2661 16.1479 43.3853C16.5049 43.5045 16.4436 43.4467 16.8582 43.6814C17.2728 43.9198 17.2115 43.8006 17.6262 43.9776C18.0408 44.1582 17.3918 44.2737 18.0408 44.1582C18.6898 44.039 18.6321 44.2159 18.9891 43.9198C19.3424 43.6236 18.9278 43.4467 19.5804 43.3853C20.2294 43.3275 20.9397 43.3275 21.0587 43.5659C21.1777 43.8006 21.0587 43.6814 21.3543 44.039C21.65 44.3929 21.7113 44.2737 22.0646 44.5735C22.418 44.866 22.3603 44.9274 22.7172 45.0466C23.0706 45.1658 23.1319 45.1044 23.3085 45.1658C23.4852 45.2236 22.3026 45.2813 21.888 44.9274C21.4733 44.5735 21.8303 44.689 21.4156 44.3929C21.001 44.0968 21.5923 44.3929 21.001 44.0968C20.4097 43.8006 20.763 43.6236 20.2294 43.7428C19.6994 43.862 19.995 43.5045 19.6994 43.862C19.4037 44.2159 19.3424 44.039 19.1045 44.1582C18.8701 44.2737 18.9278 43.862 18.8701 44.2737C18.8088 44.689 19.1045 44.3929 18.8088 44.689C18.5168 44.9852 18.4555 44.5735 18.5168 44.9852C18.5744 45.4005 17.8642 45.2813 18.5744 45.4005C19.2847 45.5197 18.9891 45.0466 19.2847 45.5197C19.5804 45.9928 19.2234 45.6389 19.5804 45.9928C19.9337 46.3504 19.995 46.3504 20.0527 46.5851C20.1104 46.8235 20.4097 46.7657 19.995 47.0004C19.5804 47.2388 19.6381 47.1774 19.5191 47.4158C19.4037 47.6541 19.7571 47.1774 19.4037 47.6541C19.0468 48.1272 18.9278 48.5425 18.8701 48.1886C18.8088 47.8311 19.2234 48.3656 18.8088 47.8311C18.3978 47.2966 18.3365 47.7119 18.3978 47.2966C18.4555 46.8849 18.8088 47.1196 18.4555 46.8849C18.1021 46.6465 18.1598 46.4695 17.8642 46.6465C17.5685 46.8235 17.5685 46.3504 17.5685 46.8235C17.5685 47.2966 17.0962 47.0004 17.5685 47.2966C18.0408 47.5927 17.6262 47.1774 18.0408 47.5927C18.4555 48.008 18.6898 48.008 18.6321 48.3042C18.5744 48.6003 18.5168 48.2464 18.5744 48.7809C18.6321 49.3118 18.3978 49.0771 18.6321 49.3118C18.8701 49.5502 18.8088 49.4924 19.1045 49.7885C19.4037 50.0847 19.5804 49.7885 19.6381 50.2616C19.6994 50.7347 19.2234 50.2616 19.6994 50.7347C20.1717 51.2115 20.1717 51.2115 20.3484 51.4462L20.2691 51.327L20.507 51.8038C20.626 52.0782 20.7053 51.8832 20.745 52.1974C20.7847 52.5152 20.864 52.2371 20.9 52.7103C20.9397 53.187 20.4277 52.9486 20.9397 53.3423C21.4517 53.7395 21.3327 53.6204 21.6896 53.9346C22.0466 54.2524 21.9673 54.2126 22.281 54.3318C22.5982 54.451 22.4396 54.5305 22.7966 54.5702C23.1499 54.6063 23.3085 54.5702 23.3879 54.9241C23.4636 55.278 23.2689 55.2419 23.6222 55.4767C23.9792 55.715 23.8602 55.3575 24.2135 55.6753C24.5705 55.9931 24.4118 55.9498 24.7291 56.069C25.0428 56.1882 24.9635 56.0292 25.2015 56.1882C25.4358 56.3471 25.3204 56.7407 25.5548 56.4662C25.7928 56.1882 25.5187 55.9895 25.7928 56.1882C26.0704 56.3868 26.3841 56.3073 26.0704 56.6613C25.7531 57.0188 25.7928 57.0188 25.5548 57.2933C25.3204 57.5714 25.1221 57.4522 25.2808 57.7303C25.4358 58.0048 25.5548 58.0445 25.7928 58.4417C26.0307 58.8354 26.2254 58.8751 26.2651 59.1135C26.3084 59.3482 26.5031 59.388 26.2651 59.5071C26.0307 59.6263 25.9514 59.4277 26.0704 59.7455C26.1858 60.0597 25.8324 59.9008 26.1858 60.0597C26.5427 60.2186 26.8564 60.4173 26.5824 60.4173C26.3084 60.4173 26.3084 60.0994 26.2254 60.5762C26.1461 61.0493 26.5031 61.089 26.1461 61.2443C25.7928 61.4068 25.7928 61.0095 25.6738 61.3635C25.5548 61.721 25.8324 61.8005 25.5548 61.9594C25.2808 62.1147 25.3998 61.7607 25.1221 62.1544C24.8481 62.5517 24.9238 62.0749 24.8481 62.5517C24.7688 63.0248 24.7688 62.9056 24.7688 63.1837C24.7688 63.4582 24.4118 63.6171 24.8481 63.6171C25.2808 63.6171 25.3204 63.4582 25.5187 63.6965C25.7134 63.9349 25.8324 63.971 25.9911 64.1696C25.9911 64.1696 26.1461 64.4874 26.4237 64.7222C26.7014 64.9606 26.7014 64.9606 27.0151 65.1989C27.3323 65.4337 27.253 65.3542 27.61 65.7118C27.9633 66.0657 27.9633 65.7912 28.1977 66.3835C28.4356 66.9758 28.7926 68.4385 28.8683 68.991C28.9476 69.5436 28.908 69.5039 28.9873 70.0203C29.0666 70.5331 28.7926 70.3742 29.0666 70.7679C29.3442 71.1652 29.1856 71.2446 29.4236 71.3602C29.6579 71.4794 29.4236 71.5985 29.7769 71.678C30.1339 71.7575 29.9752 71.5588 30.2096 71.8766C30.4475 72.1908 30.4475 72.0717 30.6062 72.31C30.7648 72.5484 30.7252 72.6639 30.9595 72.747C31.1975 72.8229 30.6062 72.7037 30.3682 72.4292C30.1339 72.1511 30.4475 72.3497 30.1339 72.1511C29.8166 71.9561 29.7769 71.5191 29.8166 71.9561C29.8562 72.3895 29.9356 72.1114 29.8166 72.5881C29.6976 73.0612 29.7372 72.9023 29.6976 73.2598C29.6579 73.6138 29.5389 73.3754 29.6976 73.733C29.8562 74.0869 29.8166 74.0869 29.8959 74.2061C29.9752 74.3252 29.5029 73.8124 29.5389 73.4549C29.5822 73.1009 29.5389 72.7831 29.5389 72.7831C29.5029 72.4292 29.6976 72.6278 29.5029 72.1511C29.3046 71.678 29.4632 71.8369 29.1459 71.3999C28.8323 70.9665 28.9476 71.0857 28.6339 70.414C28.3167 69.7422 28.4753 69.623 28.3167 69.1897C28.158 68.7527 28.0823 67.727 27.527 67.1744C26.9754 66.6219 26.9754 66.7374 26.7771 66.3835C26.5824 66.0296 26.7771 66.2246 26.4634 65.8707C26.1461 65.5131 26.2254 65.7912 26.1858 65.3939C26.1461 65.0003 26.5824 65.04 26.1461 65.0003C25.7134 64.9606 25.9911 64.8017 25.6738 65.0797C25.3601 65.3542 25.5945 64.9606 25.3601 65.3542C25.1221 65.7515 25.1221 65.3145 25.1221 65.9104C25.1221 66.5027 25.2015 66.3438 25.1618 66.8963C25.1221 67.4489 24.5705 71.2446 24.2929 72.4689C24.0188 73.6932 23.7015 74.2855 23.6222 74.8778C23.5429 75.4737 23.5429 75.3545 23.5429 75.6687C23.5429 75.9865 23.5032 76.1418 23.6619 76.0263C23.8205 75.9071 23.8205 75.9071 23.9395 75.7085C24.0585 75.5098 24.1775 75.3509 24.1775 75.3509C24.2929 75.1956 24.2929 75.3509 24.3325 74.997C24.3722 74.6431 24.2532 74.2855 24.4515 74.4842C24.6498 74.6828 24.3325 74.2855 24.6498 74.6828C24.9635 75.0764 24.8445 75.0367 25.0825 75.1162C25.3204 75.1956 25.2015 74.8381 25.3998 75.3148C25.5945 75.7879 25.8324 75.9468 25.5945 75.9468C25.3601 75.9468 25.8721 75.9865 25.3601 75.9468C24.8445 75.9071 25.1618 76.1418 24.8445 75.9071C24.5308 75.6687 24.5705 75.5893 24.4118 75.6687C24.2532 75.7482 24.3722 75.4737 24.2532 75.7482C24.1378 76.0263 24.2135 75.9865 24.0946 76.1816C23.9792 76.3802 24.0946 76.2213 23.8602 76.4597C23.6222 76.6944 23.6619 76.2213 23.6222 76.6944C23.5826 77.1711 23.5429 77.0122 23.5429 77.4456C23.5429 77.8826 22.7533 81.7144 22.2413 83.8091C21.7293 85.9038 20.626 89.7356 18.3761 90.2087C18.3761 90.2087 18.1778 90.4868 18.3365 90.9599C18.4951 91.4367 19.0468 92.0687 19.4037 92.1445C19.7571 92.224 19.6777 92.3432 20.0708 92.4226C20.4674 92.5021 20.4277 92.3432 20.6657 92.5418C20.9 92.7404 20.9 92.661 21.0983 92.7802C21.2966 92.8957 21.5346 92.5815 21.3327 93.0149C21.138 93.4519 21.2173 93.4519 21.0983 93.7264C20.9794 94.0045 21.019 94.1236 20.864 94.4379C20.7053 94.7557 20.5863 94.6365 20.6657 94.8712C20.745 95.1096 20.4674 94.9507 20.9397 95.1493C21.4156 95.348 23.2292 95.9005 23.6222 95.98C24.0188 96.0594 24.3722 95.98 24.8085 96.2544C25.2411 96.5325 25.3998 96.4531 25.7134 96.612C26.0307 96.7709 26.0668 96.9659 26.2651 96.8901C26.4634 96.8106 26.5427 96.4531 26.7014 96.8106C26.8564 97.1646 26.9393 97.0056 27.0151 97.3632C27.0944 97.7171 27.4081 97.6774 27.61 98.1144C27.8047 98.5478 27.646 98.7861 27.9633 98.862C28.277 98.945 28.515 98.945 28.7493 98.8259C28.9873 98.7067 28.9873 98.8259 29.2649 98.7067C29.5389 98.5875 29.5029 98.3094 29.7769 98.5478C30.0545 98.7861 30.0942 98.3889 30.3286 98.508C30.5665 98.6272 30.7252 98.5478 30.8405 98.9053C30.9595 99.2592 31.0785 99.1003 31.2768 99.4145C31.4751 99.7323 31.3958 99.4579 31.6698 99.8118C31.9475 100.166 31.9078 100.205 32.1061 100.285C32.3008 100.364 32.1818 100.325 32.4594 100.404C32.7371 100.484 32.7371 100.444 33.1301 100.404C33.5231 100.364 34.511 100.09 34.9833 100.285C35.4557 100.484 35.654 100.245 36.0073 100.484C36.3643 100.722 36.5229 100.682 36.8402 100.722C37.1539 100.762 37.1539 100.682 37.3125 100.801C37.4676 100.917 37.4315 100.762 37.7848 100.841C38.1382 100.917 38.2175 100.841 38.3365 100.801C38.4555 100.762 38.4951 100.877 38.4951 100.484C38.4951 100.09 38.4555 100.444 38.4951 99.8515C38.5348 99.2592 38.3762 99.5373 38.5348 99.2592C38.6934 98.9811 38.5745 98.7861 38.8124 99.1401C39.0468 99.4976 39.1658 99.4145 39.3641 99.5373C39.5588 99.6529 41.2173 99.9707 41.4156 100.09C41.6103 100.209 41.6103 100.209 42.007 100.289C42.4 100.364 42.3603 100.245 42.6379 100.523C42.9119 100.801 42.9913 100.642 43.2689 100.801C43.5465 100.957 43.5465 100.801 43.7809 101.076C44.0188 101.354 43.9792 101.235 44.2532 101.394C44.5308 101.549 44.6102 101.433 44.7291 101.668C44.8481 101.906 44.8085 101.946 45.0428 101.946C45.2808 101.946 44.8842 101.867 45.4791 101.946C46.0704 102.026 46.1101 102.065 46.3048 102.065C46.5031 102.065 46.4238 102.221 46.741 102.105C47.0547 101.986 46.9754 102.105 47.1737 102.105C47.372 102.105 47.6857 101.906 47.61 102.185C47.5271 102.459 47.7254 102.419 47.4117 102.817C47.0944 103.21 46.9394 103.051 47.134 103.329C47.3324 103.608 47.2927 103.683 47.4117 103.763C47.5271 103.842 48.122 103.882 48.4753 104.12C48.8323 104.355 48.9873 104.395 49.1459 104.713C49.3046 105.027 49.2649 105.186 49.5822 105.186C49.8959 105.186 49.7769 105.265 50.1339 105.146C50.4872 105.027 51.0389 104.911 51.2768 104.792C51.5148 104.673 51.2372 104.355 51.7492 104.593C52.2611 104.832 52.1854 104.474 52.4991 104.832C52.8164 105.186 53.0508 105.265 53.3284 105.186C53.606 105.106 53.4474 104.987 53.88 105.225C54.3127 105.464 54.3127 105.464 54.63 105.424C54.9473 105.384 54.9473 105.464 55.3006 105.305C55.654 105.146 55.4593 105.265 55.9713 105.027C56.4832 104.792 56.4832 104.554 56.7609 104.713C57.0349 104.868 56.8799 104.947 57.3522 104.792C57.8245 104.633 57.6695 104.554 57.9832 104.633C58.3004 104.713 58.2608 104.514 58.6141 104.673C58.9711 104.832 59.0107 104.713 59.2054 104.832C59.4038 104.947 59.7571 104.911 59.7571 104.911C59.7571 104.911 59.4038 104.832 59.5984 104.514C59.8004 104.2 59.9157 104.315 59.6778 103.922C59.4434 103.528 59.5227 103.644 59.4038 103.369C59.2848 103.091 59.4038 103.131 59.0865 102.817C58.7728 102.499 58.6141 102.936 58.6538 102.26C58.6935 101.589 58.6538 101.473 58.7331 100.762C58.8124 100.05 58.6538 100.209 58.8124 99.6132C58.9711 99.0209 59.1261 99.2592 58.8918 98.7464C58.6538 98.2299 58.3798 98.1938 58.5745 97.9952C58.7728 97.7966 58.7728 98.0349 58.9711 97.5618C59.1658 97.0851 59.5624 97.1248 59.2451 96.8503C58.9278 96.5723 58.7728 96.2544 59.0468 96.2544C59.3244 96.2544 59.2848 96.3736 59.5227 96.0594C59.7571 95.7416 59.7174 95.6622 60.0744 95.348C60.4277 95.0301 60.3881 95.0699 60.6657 94.8712C60.9433 94.6762 60.626 94.557 61.138 94.4379C61.65 94.3187 61.495 94.1634 61.9276 94.2392C62.3603 94.3187 62.5189 94.4379 62.8759 94.2789C63.2292 94.1236 63.3482 94.3584 63.5862 93.8456C63.8242 93.3327 63.5465 93.4519 64.0585 93.2135C64.5705 92.9752 64.5308 92.8957 64.9275 92.8596C65.3205 92.8199 65.3205 92.9355 65.7171 92.5021C66.1101 92.0687 65.9911 92.1445 66.3444 91.8303C66.7014 91.5125 66.8204 91.3572 67.1737 91.1983C67.5307 91.0394 67.491 90.8805 67.765 90.9997C68.0427 91.1189 68.1616 90.9599 68.122 91.2778C68.0823 91.592 67.7254 91.5125 68.0823 91.7509C68.4357 91.9892 68.241 92.1445 68.753 92.1084C69.2649 92.0687 69.146 91.9892 69.5029 92.1445C69.8563 92.3034 70.1339 92.3829 70.5269 92.3432C70.9235 92.3034 70.9235 92.0687 71.3562 92.3034C71.7888 92.5418 72.0268 92.5815 72.0268 92.5815C72.0268 92.5815 71.9475 92.5815 72.0665 92.7802C72.1854 92.9752 71.9078 93.0944 72.1854 92.9752C72.4595 92.8596 72.5784 92.8199 72.6181 93.0149C72.6578 93.2135 72.8957 93.3327 72.5784 93.3327C72.2612 93.3327 72.1854 93.1341 71.9871 93.1738C71.7888 93.2135 71.7492 93.2533 72.0268 93.4086C72.3044 93.5711 72.0665 93.6072 72.5784 93.6072C73.094 93.6072 72.9354 93.5711 73.2887 93.6469C73.6421 93.7264 73.5267 93.6867 73.9197 93.6072C74.3163 93.5314 74.3163 93.5711 74.511 93.4519C74.7093 93.3327 74.63 93.3724 74.4317 93.2135C74.237 93.0546 73.999 93.1341 74.1577 92.8596C74.3163 92.5815 73.9197 92.1879 74.356 92.3829C74.7887 92.5815 74.7093 92.6212 74.987 92.6212C75.261 92.6212 75.38 92.4226 75.4196 92.7802C75.4593 93.1341 75.3403 92.9355 75.5783 93.1738C75.8126 93.4086 75.8126 93.3724 75.892 93.6072C75.9713 93.8456 75.8523 94.0045 76.1696 93.8853C76.4869 93.7661 76.5626 93.7264 76.8402 93.6469C77.1178 93.5711 76.9953 93.5711 77.3919 93.5711C77.7849 93.5711 77.6298 93.4086 77.9435 93.5711C78.2608 93.7264 78.3365 93.7661 78.3365 94.1236C78.3365 94.4776 78.5745 94.3584 78.4555 94.6762C78.3365 94.9904 78.2608 94.9507 78.5745 95.0699C78.8918 95.189 78.5348 95.1096 79.1261 95.1493C79.7174 95.189 79.5228 95.2288 79.9158 95.3082C80.3124 95.3877 80.2727 95.189 80.5467 95.3877C80.8244 95.5863 80.745 95.7416 81.1416 95.7813C81.5346 95.8211 81.495 95.5069 81.6933 95.9005C81.888 96.2942 81.7726 96.0992 82.0466 96.3339C82.3243 96.5723 82.1656 96.2183 82.3243 96.5723C82.4793 96.9262 82.4396 96.9659 82.7966 96.9659C83.1499 96.9659 83.1103 97.2837 83.3482 96.9262C83.5862 96.5723 83.2689 96.3736 83.6655 96.4531C84.0585 96.5325 83.6223 96.3736 84.1775 96.5723C84.7292 96.7709 84.9671 96.8106 85.0825 97.0851C85.2015 97.3632 85.1618 97.5221 85.3205 97.3235C85.4791 97.1248 85.3601 97.2043 85.5188 96.8503C85.6738 96.4928 85.5584 96.4531 85.9118 96.4134C86.2687 96.3736 86.2291 96.2183 86.5824 96.2942C86.9394 96.3736 86.9394 96.1786 87.1737 96.4134C87.4117 96.6517 87.4117 96.7709 87.6497 96.4531C87.884 96.1389 87.5703 96.2544 88.122 96.0197C88.6736 95.7813 88.6736 95.6622 88.9513 95.7019C89.2253 95.7416 89.1099 95.98 89.5029 95.6224C89.8959 95.2685 89.5786 95.4671 89.9356 95.1493C90.2925 94.8351 90.4512 94.3981 90.2132 94.3187C89.9753 94.2392 89.9753 94.1634 89.8166 94.1236C89.6616 94.0839 90.0546 93.8853 90.1736 93.7264C90.2925 93.5711 90.2132 93.7661 90.4115 93.4086C90.6062 93.0546 90.4512 93.0546 90.8442 92.9355C91.2372 92.8199 91.0028 93.0944 91.4355 92.661C91.8682 92.224 91.7888 92.5021 92.0665 92.1084C92.3441 91.7111 92.1061 91.592 92.4991 91.5522C92.8958 91.5125 92.8164 91.2778 93.1698 91.3969C93.5267 91.5125 93.5267 91.9098 93.7647 91.4367C93.9991 90.9599 93.8801 90.9599 94.118 90.7252C94.356 90.4868 94.2767 90.4074 94.5904 90.2485C94.9077 90.0932 94.9077 90.3279 95.1456 89.8151C95.38 89.3023 95.1853 89.2228 95.499 89.342C95.8127 89.4612 95.7766 89.5406 95.9713 89.3023C96.1696 89.0639 96.1299 89.1831 96.4472 89.0639C96.7609 88.9447 96.7609 88.7858 96.9592 88.7497C97.1539 88.71 97.2332 88.5908 97.2332 88.5908C97.2332 88.5908 97.3522 88.2332 97.1179 88.2332C96.8799 88.2332 96.9196 88.273 96.7609 88.0382C96.6023 87.7999 96.2886 87.919 96.4833 87.6807C96.6816 87.4423 96.8402 87.4026 96.9989 87.0089C97.1539 86.6153 97.0782 86.5756 97.3522 86.4564C97.6299 86.3372 97.6299 86.3372 97.7885 85.9038C97.9435 85.4704 97.9435 85.586 98.1418 85.4271C98.3401 85.2718 98.3798 85.3115 98.4159 85.0334C98.4555 84.7589 98.8125 84.8348 98.5348 84.4809C98.2608 84.1233 98.2212 84.2028 98.1815 83.968C98.1418 83.7297 98.2212 83.4516 98.0625 83.5708C97.9039 83.6899 97.9039 83.3721 97.7092 83.4516C97.5109 83.531 97.5109 83.531 97.1972 83.6502C96.8799 83.7694 97.1143 83.6502 96.5626 83.8488C96.011 84.0439 96.1696 84.0872 95.6973 84.163C95.2213 84.2425 95.3403 84.4014 94.9077 84.2425C94.4714 84.0872 94.5507 83.8886 94.1974 83.8886C93.8404 83.8886 92.9751 83.4118 92.8561 83.2963C92.7371 83.1771 92.9354 83.0976 92.5785 82.9387C92.2251 82.7834 92.4991 82.8593 92.1061 82.5451C91.7095 82.2273 91.8285 82.3067 91.5941 82.0684C91.3562 81.8336 91.1615 81.9131 91.2769 81.6747C91.3958 81.4363 91.3165 81.4761 91.4752 81.2413C91.6338 81.003 91.7888 81.003 91.6735 80.7646C91.5545 80.5299 91.6338 80.5299 91.5941 80.2915C91.5545 80.0567 91.7095 80.017 91.4752 79.7787C91.2372 79.5403 90.9632 79.58 91.1218 79.3453C91.2769 79.1069 91.1615 79.2658 91.3562 78.9083C91.5545 78.5543 91.3958 78.5146 91.6338 78.316C91.8682 78.121 91.7528 78.0379 91.9078 77.8429C92.0665 77.6442 91.7888 77.684 92.0665 77.6442C92.3441 77.6045 92.3044 77.5251 92.4991 77.5251C92.6974 77.5251 92.9751 77.684 92.8164 77.3698C92.6578 77.0519 92.5785 77.0519 92.5785 76.7377C92.5785 76.4199 92.7768 76.4597 92.4991 76.2213C92.2251 75.9865 92.5785 76.261 92.2251 75.9865C91.8682 75.7085 91.9078 75.7085 91.6735 75.6687C91.4355 75.629 91.1218 75.5098 90.9632 75.4304C90.8045 75.3509 90.4115 75.4304 90.3322 75.1956C90.2529 74.9573 90.0942 74.9175 89.8959 74.7586C89.7012 74.6033 89.7012 74.5636 89.5822 74.2855C89.4633 74.011 89.4633 74.1663 89.3046 73.733C89.146 73.2996 89.3443 73.4151 89.146 73.1407C88.9513 72.8626 88.7926 72.9818 88.9513 72.747C89.1099 72.5087 89.1063 72.31 89.3046 72.3895C89.5029 72.4689 89.7012 72.3497 89.8959 72.1908C90.0942 72.0319 89.9753 71.8766 90.4512 71.8766C90.9235 71.8766 91.1615 71.7575 91.3958 71.6383C91.6338 71.5191 91.7095 71.3999 92.0665 71.3205C92.4234 71.2446 92.6181 71.0063 92.7371 71.046C92.8561 71.0857 92.9354 71.3602 92.9751 70.9268C93.0147 70.4934 92.8164 70.5331 93.0905 70.2948C93.3681 70.0564 93.4077 70.2551 93.4077 69.8217C93.4077 69.3847 93.2888 69.623 93.4077 69.3847C93.5267 69.1499 93.8044 69.1499 93.5267 68.9513C93.2491 68.7527 93.2888 68.6371 92.9354 68.3193C92.5785 68.0015 92.7768 67.8064 92.4595 67.7667C92.1458 67.727 91.9872 67.7667 91.9078 67.4886C91.8321 67.2141 91.7095 67.5284 91.7528 67.0552C91.7888 66.5821 91.9078 66.463 91.7095 66.2246C91.5148 65.9862 91.5545 66.0657 91.2372 65.8309C90.9235 65.5926 91.0028 65.5926 90.7252 65.5131C90.4512 65.4337 90.2529 65.7912 90.3719 65.3181C90.4908 64.8414 90.2132 64.603 90.2925 64.3683C90.3719 64.1299 90.0942 64.2491 90.4115 63.9349C90.7252 63.6171 90.4512 63.7362 90.8839 63.5376C91.3165 63.3426 91.2372 63.2631 91.3958 63.2234C91.5545 63.1837 91.5941 63.3029 91.7095 63.1042C91.8321 62.9056 91.9078 63.1042 91.8682 62.707C91.8321 62.3133 91.5545 61.721 91.4752 61.4827C91.3958 61.2443 91.6338 61.2082 91.3165 61.0095C91.0028 60.8109 91.0822 60.9301 90.8839 60.6556C90.6855 60.3775 91.0822 60.4967 90.6855 60.3775C90.2925 60.2583 90.1339 60.5762 90.1736 60.0994C90.2132 59.6263 90.0149 59.7058 90.2529 59.3482C90.4908 58.9943 90.7252 58.9546 90.6062 58.7162C90.4908 58.4815 90.6855 58.756 90.5269 58.2828C90.3719 57.8097 90.2925 57.77 90.4512 57.5316C90.6062 57.2933 90.6855 57.2138 90.6459 57.0983C90.6062 56.9791 90.7649 56.8599 90.4115 56.8202C90.0546 56.7804 90.2529 56.6613 89.8959 56.6251C89.5426 56.5818 89.6219 56.4265 89.265 56.5818C88.9116 56.7407 88.4357 56.7407 88.4357 56.7407C88.122 56.6613 88.36 56.3868 87.9633 56.6613C87.5703 56.9394 87.5307 56.9791 87.2927 57.0983C87.0584 57.2138 87.2531 57.4125 86.8997 57.3763C86.5428 57.333 86.8601 57.2536 86.5428 57.333C86.2291 57.4125 86.1101 57.3763 85.9515 57.6111C85.7928 57.8495 85.8721 57.6905 85.7171 57.9686C85.5584 58.2431 85.5584 58.1637 85.4395 58.3623C85.3205 58.5609 85.2015 58.4815 85.3205 58.7162C85.4395 58.9546 85.4791 58.9943 85.4791 59.2327C85.4791 59.4674 85.5188 59.6263 85.3601 59.7455C85.2015 59.8647 85.2015 59.825 85.0825 60.02C84.9671 60.2186 85.0429 60.3378 84.7292 60.1789C84.4119 60.02 84.5309 60.3775 84.4119 60.02C84.2965 59.6661 84.3326 59.8647 84.2568 59.4277C84.1775 58.9943 84.1775 59.1135 84.2568 58.7162C84.3362 58.3226 84.3722 58.2828 84.4912 57.9686C84.6102 57.6508 84.7688 57.8097 84.6895 57.3763C84.6102 56.9394 84.6102 56.8996 84.5309 56.701C84.4515 56.506 84.3362 56.506 84.5705 56.3073C84.8085 56.1087 85.0825 56.2676 84.9275 55.9137C84.7688 55.5561 84.8482 55.6356 84.6895 55.278C84.5309 54.9241 84.2568 55.0036 84.6498 54.7255C85.0429 54.451 85.0429 54.4907 85.3205 54.1729C85.5981 53.8587 85.5188 53.819 85.9118 53.5409C86.3048 53.2628 86.1101 53.382 86.3048 53.2628C86.5031 53.1472 86.5031 52.9883 86.8204 52.8692C87.1377 52.75 87.3324 52.9089 87.3324 52.6308C87.3324 52.3563 87.5307 52.1974 87.4514 51.8796C87.372 51.5654 87.3324 51.327 87.372 51.0128C87.4117 50.695 87.0584 50.6156 87.4117 50.3014C87.765 49.9835 87.6857 49.9438 88.003 49.868C88.3203 49.7885 88.5943 49.8283 88.753 49.7091C88.9116 49.5899 88.9513 49.6296 89.146 49.3515C89.3443 49.0771 89.3839 49.0771 89.5786 48.799C89.7769 48.5245 89.9356 47.9683 90.0942 47.813C90.2529 47.6541 90.6062 47.2568 90.6855 47.0618C90.7649 46.8632 90.8442 46.7837 91.0822 46.5851C91.3165 46.3901 91.2372 46.3504 91.4752 46.0723C91.7095 45.7978 91.7095 45.7978 91.7528 45.6389C91.7888 45.48 92.0268 45.5197 91.7528 45.3608C91.4752 45.2055 91.3165 45.2813 91.2769 45.0069C91.2372 44.7288 91.1218 44.8877 91.2372 44.5301C91.3562 44.1762 91.3165 44.057 91.5148 43.9017C91.7095 43.7428 91.7888 43.5839 91.9872 43.6634C92.1855 43.7428 92.3441 43.6236 92.4234 43.862C92.4991 44.0968 92.4234 44.0173 92.6974 44.1762C92.9751 44.3351 92.9751 44.1365 93.2491 44.2954C93.5267 44.4543 93.4474 44.5301 93.8801 44.4543C94.3163 44.3748 94.0784 44.4543 94.4714 44.3748C94.868 44.2954 94.868 44.6096 95.0663 44.0968C95.261 43.5839 95.261 43.6236 95.4593 43.23C95.6576 42.8327 95.3403 42.9519 95.7369 42.7135C96.1299 42.4788 95.9713 42.5582 96.0903 42.3596C96.2093 42.161 96.1696 42.5149 96.2093 41.8468C96.2489 41.175 96.3679 41.3701 96.2489 40.8969C96.1299 40.4238 96.2489 40.5791 95.9713 40.1855C95.6973 39.7918 95.6973 40.0266 95.7369 39.5535C95.7766 39.0803 95.8559 38.6831 95.8559 38.4844C95.8559 38.2894 95.8559 36.3934 96.011 35.7577C96.1696 35.1257 96.011 35.4435 96.2886 34.8115C96.5626 34.1795 96.7609 33.468 96.7609 33.468C96.8799 32.6374 96.9989 32.7168 97.0782 31.9259C97.1539 31.135 96.9989 30.9797 97.3919 30.3079C97.7885 29.6362 98.2608 28.9247 98.4952 28.6466C98.7331 28.3722 98.8521 28.3288 99.0108 27.8593C99.1658 27.3826 99.1658 27.2634 99.3641 26.9889C99.5624 26.7109 99.5228 26.83 99.6814 26.5122C99.8364 26.198 99.9951 25.7646 99.9951 25.7646C99.9951 25.7646 99.9158 25.4071 99.4831 25.2879C99.0468 25.1687 99.2055 25.0893 98.6538 24.9737C98.1022 24.8545 98.2212 24.7751 97.8642 24.8545C97.5109 24.934 97.4712 24.8943 97.1539 24.8943C96.8402 24.8943 96.8006 24.6559 96.5626 24.8148C96.3282 24.9737 96.3282 24.9737 95.892 24.8943C95.4593 24.8148 95.38 25.0893 95.023 24.6559C94.6697 24.2225 94.63 24.2622 94.4317 23.9444C94.237 23.6302 94.3524 23.3521 94.0784 23.4713C93.8044 23.5905 93.8801 23.5508 93.4871 23.6302C93.0905 23.7061 92.8958 23.7061 92.6181 23.865C92.3441 24.0239 92.5785 24.3417 91.7888 24.0239C91.0028 23.7061 90.8839 23.5905 90.6459 23.3919C90.4115 23.1932 90.3719 23.0777 90.0546 23.1932C89.7409 23.3124 89.7012 23.3124 89.4633 23.3124C89.2253 23.3124 89.0306 23.5508 88.7926 23.3124C88.5547 23.0777 88.5943 23.233 88.515 22.7996C88.4357 22.3626 88.7926 22.2867 88.396 21.9292C88.003 21.5753 88.1617 21.6944 87.848 21.2575C87.5307 20.8241 87.9237 20.8241 87.4117 20.6652C86.8997 20.5063 87.098 20.3871 86.6221 20.1921C86.1498 19.9934 86.1101 19.7948 85.9911 20.0331C85.8721 20.2715 85.9515 20.7049 85.7531 20.4304C85.5584 20.1523 85.7531 20.0729 85.3601 19.9934C84.9671 19.914 84.9671 19.5998 84.6895 19.7948C84.4119 19.9934 84.4912 20.0729 84.2172 20.1523C83.9396 20.2282 83.8999 20.3871 83.5862 20.3076C83.2689 20.2282 82.9949 20.1523 82.7173 20.0331C82.4396 19.914 81.8483 19.56 81.495 19.4011C81.1416 19.2422 81.4157 19.2025 80.9433 19.2422C80.4674 19.2819 80.4674 19.4409 80.0347 19.4409C79.5985 19.4409 79.8364 19.6395 79.3641 19.56C78.8918 19.4806 79.2055 19.4409 78.7331 19.1628C78.2608 18.8883 77.7056 18.1371 77.5902 18.0974C77.4712 18.0576 77.1178 17.9385 76.8799 17.7037C76.6419 17.4653 76.4292 17.1692 76.3282 17.1114C76.1299 16.9886 75.8523 16.6347 75.6973 16.5552C75.5386 16.4758 75.261 16.4361 75.0663 16.2808C74.868 16.1219 74.6697 16.1219 74.6697 15.9232C74.6697 15.7246 74.7887 15.3707 74.7093 15.2118C74.63 15.0528 74.8283 14.8976 74.5903 14.7386C74.356 14.5797 74.1577 14.54 74.1577 14.3847C74.1577 14.2258 74.1973 13.9477 74.1973 13.9477C74.1973 13.9477 74.3163 13.4349 74.392 13.1965C74.4714 12.9582 74.5507 12.8823 74.63 12.7234C74.7093 12.5645 74.868 12.4851 74.7887 12.3298C74.7093 12.1708 75.0663 12.0119 74.7093 11.9722C74.356 11.9325 74.7887 11.8133 74.356 11.9325C73.9197 12.0517 73.8007 12.0517 73.6817 12.2503C73.5664 12.4453 73.606 12.4851 73.3681 12.5645C73.1301 12.644 73.1698 12.6042 73.1301 12.8426C73.094 13.0773 73.1698 13.1171 73.094 13.3157C73.0147 13.5143 73.2491 13.5541 72.9715 13.7094C72.6974 13.8683 72.6578 13.8285 72.3801 14.0669C72.1061 14.3053 72.4991 14.0272 71.8682 14.3414C71.2372 14.6592 71.3165 14.7784 71.0425 14.6592C70.7649 14.54 70.6459 14.54 70.4872 14.3847C70.3286 14.2258 70.5269 14.1066 70.1339 14.0272C69.7373 13.9477 69.6976 13.9477 69.6183 13.7491C69.5426 13.5541 69.3839 13.6696 69.4236 13.3952C69.4632 13.1171 69.6183 12.5645 69.6183 12.29C69.6183 12.0119 69.6976 11.8133 69.7373 11.5786C69.7769 11.3402 69.8166 11.4197 69.8166 10.9827C69.8166 10.5493 69.8166 10.589 69.8959 10.3145C69.9752 10.0364 70.2925 9.87753 69.9752 9.91726C69.658 9.95698 69.7373 9.87753 69.3443 9.87753C68.9513 9.87753 68.6736 10.2351 68.7133 9.87753C68.753 9.5236 69.2649 9.5236 68.753 9.5236C68.241 9.5236 67.6497 9.60305 67.372 9.56333C67.0944 9.5236 66.979 9.63917 66.6221 9.48387C66.2651 9.32497 66.0704 9.32497 65.9514 9.36469C65.8325 9.40442 66.3444 9.68251 66.0308 9.56333C65.7171 9.44415 65.5548 9.5236 65.5188 9.24551C65.4791 8.96742 65.3998 9.12633 65.4394 8.81213C65.4791 8.49431 65.9514 8.21984 65.5945 8.10066C65.2411 7.98148 64.9635 7.98148 64.8481 7.74312C64.7292 7.50837 64.8049 7.54809 64.6102 7.46864C64.4119 7.38919 64.2929 7.19055 64.2568 7.34946C64.2172 7.50837 64.1378 7.70339 63.9792 7.66727C63.8242 7.62755 63.6259 7.74312 63.4672 7.62755C63.3086 7.50837 63.1499 7.42891 62.9516 7.27001C62.7569 7.1111 62.7173 7.15083 62.6379 6.91608C62.5586 6.67772 62.5189 6.0457 62.4793 5.80734C62.4396 5.57259 62.4396 5.53286 62.4396 5.33423C62.4396 5.13559 62.5189 5.41368 62.4 4.97669C62.281 4.5433 62.4396 4.58303 62.3206 4.34467C62.2053 4.10992 62.2413 4.14965 62.007 3.91128C61.769 3.67292 61.7293 3.67292 61.5346 3.75238C61.3363 3.83183 61.376 3.99074 61.0984 3.91128C60.8243 3.83183 60.8243 3.7921 60.6657 3.95101C60.507 4.10992 60.5467 3.95101 60.3124 4.18937C60.0744 4.42412 59.9951 4.46385 59.8364 4.58303C59.6778 4.70221 59.7968 4.85751 59.5227 4.70221C59.2451 4.5433 59.2054 4.46385 59.0107 4.30494C58.8124 4.14965 58.8124 3.99074 58.5745 3.87156C58.3365 3.75238 58.1418 3.4779 58.0625 3.35872C57.9832 3.23954 57.9038 3.12036 57.8245 2.76643C57.7452 2.40889 57.5902 2.01523 57.5469 1.8166C57.5108 1.61796 57.4315 1.38322 57.3918 0.985947C57.3522 0.592291 57.3918 0.552564 57.3125 0.393657C57.2332 0.234749 57.1142 0 57.1142 0C57.1142 0 56.7609 0.11918 56.4039 0.234749C56.0506 0.35393 56.2092 0.433383 55.7333 0.393657C55.261 0.35393 55.5386 0.158907 55.0627 0.393657C54.5903 0.632017 54.749 0.711471 54.273 0.790925C53.8007 0.866767 53.8404 0.866767 53.487 0.866767C53.1301 0.866767 53.2094 0.592291 52.8164 0.830651C52.4198 1.0654 52.1854 1.18458 51.7888 1.30376C51.3958 1.42294 51.1578 1.38322 50.8406 1.61796C50.5269 1.85633 50.2889 1.97551 50.0942 2.09469C49.8959 2.21026 49.9356 2.09469 49.9752 2.48834C50.0149 2.88561 50.0149 3.16009 50.0545 3.55736C50.0942 3.95101 50.2132 3.87156 50.0942 4.30494C49.9752 4.74194 49.9752 4.5433 49.9752 5.01641C49.9752 5.49313 50.0942 5.53286 49.9752 5.76761C49.8562 6.00597 49.8166 6.08542 49.9752 6.24072C50.1339 6.39963 50.3286 6.16488 50.1339 6.39963C49.9356 6.63799 50.0149 6.67772 49.9752 6.9558C49.9356 7.23028 50.0545 7.30973 49.9356 7.62755C49.8166 7.94175 49.6183 7.74312 49.8562 8.06093C50.0942 8.37513 50.2528 8.33541 50.2528 8.45459C50.2528 8.57377 50.1339 8.41486 49.9752 8.57377C49.8166 8.73267 49.7769 8.7724 49.7373 8.96742C49.6976 9.16606 49.6183 9.04688 49.6579 9.36469C49.6976 9.68251 49.6183 9.68251 49.8562 9.87753C50.0942 10.0762 49.9752 10.1159 50.1699 10.1953C50.3682 10.2748 50.4079 10.1953 50.4476 10.394C50.4872 10.589 50.3286 10.6685 50.6062 10.7479C50.8802 10.8274 50.8009 10.8671 50.9631 11.0224C51.1182 11.1813 51.0785 11.0224 51.2768 11.2607C51.4751 11.4991 51.5148 11.5388 51.0785 11.4594C50.6459 11.3799 50.6459 11.3402 50.4872 11.221C50.3286 11.1018 50.2132 10.9465 50.0545 10.7479C49.8959 10.5493 50.3682 10.7082 49.8959 10.5493C49.4236 10.394 49.5029 10.0364 49.4236 10.394C49.3442 10.7479 49.3803 10.7479 49.3046 11.0224C49.2253 11.3005 48.9476 11.9325 48.3563 12.2106C47.765 12.4851 48.0426 12.29 47.5271 12.6042C47.0151 12.922 47.2134 12.8823 46.8997 13.0773C46.5824 13.276 46.5824 13.1965 46.1894 13.3952C45.7928 13.5938 46.2254 13.5541 45.4394 13.7491C44.6498 13.9477 44.8842 13.9874 44.2965 13.9477C43.7016 13.908 43.8602 13.7888 43.3482 13.9477C42.8362 14.1066 42.7172 14.0272 42.5189 14.2258C42.3242 14.4208 41.65 14.54 41.3363 14.7386C41.019 14.9373 41.0984 14.7784 40.6657 15.0528C40.2294 15.3309 40.3484 15.3707 40.0744 15.5296C39.7967 15.6849 40.1501 15.4501 39.7967 15.6849C39.4434 15.9232 39.6778 15.7679 39.3244 16.0424C38.9675 16.3169 39.0468 16.0027 38.8124 16.4758C38.5745 16.9525 38.5348 16.9128 38.4158 17.3064C38.2968 17.7037 38.5348 17.1873 38.2968 17.7037C38.0625 18.2165 37.9435 18.7294 38.2968 18.8088C38.6538 18.8883 38.7728 18.8883 39.2451 18.9677C39.7174 19.0436 39.7174 19.1628 40.0347 19.123C40.3484 19.0833 39.4795 18.9244 39.1261 19.1628C38.7728 19.4011 38.6141 19.4409 38.2968 19.6395C37.9832 19.8345 38.1815 19.6792 37.8245 19.9934C37.4676 20.3076 37.7055 20.1523 37.1935 20.3871C36.6815 20.6254 36.9195 20.6254 36.3246 20.7446C35.7333 20.8638 35.8919 21.1383 35.4953 20.8638C35.1023 20.5857 35.261 20.4304 34.7093 20.1921C34.154 19.9537 34.3127 19.9537 33.8007 19.9537C33.2887 19.9537 33.368 19.9934 32.6577 19.8742C31.9475 19.7551 32.3405 19.56 31.7491 19.5998C31.1578 19.6395 31.5112 19.7153 30.9199 19.4409C30.3286 19.1628 30.4079 19.0472 29.9752 19.0075C29.5389 18.9677 29.2649 19.0472 29.1856 19.2422C29.1063 19.4409 29.2649 19.56 29.0486 19.56Z" fill="#E2E4E4"/>
<path d="M26.7368 66.3041C26.7368 66.3041 26.8197 66.463 26.6611 66.7375C26.5024 67.0155 26.5817 66.8964 26.4627 67.1347C26.3438 67.3731 26.1851 67.1745 26.3041 67.5284C26.4231 67.8859 26.1851 67.8462 26.5421 68.0412C26.8954 68.2399 26.8197 68.0809 27.0144 68.4385C27.2127 68.7924 27.3317 68.9911 27.3317 69.2691C27.3317 69.5436 27.566 69.6231 27.3317 69.8217C27.0937 70.0203 26.7007 70.0203 27.0144 70.1756C27.3317 70.3345 27.3317 70.2948 27.4903 70.4935C27.6454 70.6921 27.8437 70.8077 27.6454 71.1255C27.4507 71.4397 27.3713 71.3602 27.4074 71.6383C27.4507 71.9164 27.3713 71.9958 27.4903 72.1909C27.6093 72.3895 27.4074 72.6279 27.7644 72.469C28.1213 72.3101 28.1574 71.9561 28.316 72.3101C28.4746 72.664 28.435 72.747 28.554 73.101C28.673 73.4549 28.5143 73.6535 28.8316 73.6138C29.1453 73.5741 29.1849 73.5344 29.3039 73.6535C29.4229 73.7727 29.4229 73.6535 29.5383 73.8124C29.6573 73.9714 29.5022 73.6535 29.6573 73.9714C29.8159 74.2856 30.2486 74.1266 29.8159 74.2856C29.3796 74.4445 29.5383 74.5636 29.3796 74.4445C29.2246 74.3253 29.3796 74.0905 29.2246 74.3253C29.066 74.5636 28.8677 73.8522 29.066 74.5636C29.2643 75.2751 29.3796 75.1957 29.2643 75.3943C29.1453 75.5893 29.1056 75.3943 29.1056 75.7085C29.1056 76.0263 29.1849 76.066 29.1056 76.2213C29.0263 76.3802 28.8316 76.3802 29.066 76.5789C29.3039 76.7775 29.1453 77.052 29.4626 76.8136C29.7762 76.5789 29.5022 76.42 29.8952 76.5789C30.2882 76.7378 30.2882 76.6583 30.5262 76.8136C30.7642 76.9725 30.8399 76.6186 30.9985 76.9725C31.1572 77.3301 31.2365 77.3301 31.2762 77.5648C31.3158 77.8032 31.1968 77.8826 31.3951 78.0379C31.5898 78.1968 31.5502 78.2366 31.7881 78.2366C32.0261 78.2366 31.9468 78.1571 32.3398 78.2366C32.7364 78.316 32.8157 78.4749 32.9311 78.2763C33.0501 78.0777 32.9708 78.3558 33.0501 78.0777C33.1294 77.8032 32.8951 77.9224 33.1294 77.8032C33.3674 77.684 33.4431 77.3698 33.6017 77.5648C33.7604 77.7635 34.038 77.4059 34.1534 77.684C34.2724 77.9621 34.038 77.9982 34.2724 77.9621C34.5103 77.9224 34.55 77.9224 34.669 77.684C34.788 77.4456 34.4707 77.684 34.788 77.4456C35.1017 77.2109 34.9827 77.2109 35.1413 77.0123C35.3 76.8136 35.3 77.0917 35.3 76.8136C35.3 76.5392 35.574 76.6944 35.3 76.5392C35.0223 76.3802 34.9033 75.9071 35.0223 75.788C35.1413 75.6688 35.1017 75.5893 35.336 75.5893C35.574 75.5893 35.6136 75.5099 35.8119 75.4738C36.0066 75.4304 36.0896 75.5893 36.1689 75.3943C36.2446 75.1957 36.2086 75.5496 36.2446 75.1957C36.2843 74.8381 36.2446 75.1162 36.2843 74.8381C36.3239 74.5636 36.4429 74.6828 36.3239 74.5636C36.2086 74.4445 36.0896 74.365 35.9309 74.4445C35.7723 74.5239 35.8516 74.6431 35.6533 74.5239C35.455 74.4047 35.5379 74.4445 35.3 74.365C35.062 74.2856 35.0223 74.2458 34.788 74.2458C34.55 74.2458 34.55 74.2856 34.431 74.2856C34.312 74.2856 34.1534 74.4047 34.1931 74.2458C34.2327 74.0905 34.3517 74.1664 34.3914 73.8522C34.431 73.5344 34.431 73.733 34.3914 73.3755C34.3517 73.0215 34.3517 73.2202 34.431 72.9023C34.5103 72.5881 34.312 72.5881 34.5897 72.4292C34.8637 72.2703 35.062 72.3895 34.9033 72.1114C34.7483 71.8369 34.5897 72.2703 34.7483 71.8369C34.9033 71.3999 35.1017 71.7178 34.9033 71.3999C34.7086 71.0857 34.788 70.9268 34.5103 71.0063C34.2327 71.0857 34.2724 70.8474 34.0777 71.0063C33.8794 71.1652 33.919 71.3602 33.6811 71.2049C33.4431 71.046 33.5224 70.9268 33.2881 71.0857C33.0501 71.2446 33.1691 71.4397 32.8951 71.2844C32.6174 71.1255 32.5778 71.2049 32.3398 71.046C32.1054 70.8871 32.1451 70.9666 32.0658 70.7282C31.9865 70.4935 31.9468 70.414 31.7881 70.3345C31.6295 70.2551 31.6692 70.0203 31.4745 70.1359C31.2762 70.2551 31.1968 70.4537 31.1175 70.2551C31.0382 70.0565 30.9589 70.1756 30.9589 69.782C30.9589 69.3847 31.0779 69.345 30.9985 69.0705C30.9192 68.7924 30.9589 68.7166 30.7245 68.7166C30.4865 68.7166 30.0142 68.6732 29.7762 68.5577C29.5383 68.4385 29.4626 68.5179 29.2643 68.3988C29.066 68.2796 28.7126 68.1243 28.7126 68.1243C28.7126 68.1243 28.947 69.345 28.947 69.6628C28.947 69.9806 28.9073 70.0565 28.947 70.3345C28.9866 70.6126 28.947 70.3345 29.1056 70.6524C29.2643 70.9666 29.3039 71.046 29.3796 71.2049C29.4626 71.3602 29.5022 71.4794 29.7366 71.5589C29.9746 71.6383 29.8952 71.5589 30.0935 71.7575C30.2882 71.9561 30.3676 71.8369 30.5262 72.0717C30.6848 72.3101 30.8399 72.469 30.8399 72.469L30.9589 72.7073C30.9589 72.7073 30.7245 72.6279 30.5262 72.5087C30.3279 72.3895 30.3676 72.469 30.1693 72.2703C29.9746 72.0717 30.1332 72.3101 29.9746 72.0717C29.8159 71.8369 29.6573 71.4794 29.8159 71.8369C29.9746 72.1909 29.8952 72.469 29.8952 72.469V72.5881C29.8952 72.5881 29.8556 72.6279 29.8159 72.8229C29.7762 73.0215 29.8159 72.9818 29.7762 73.2202C29.7366 73.4549 29.6969 73.4549 29.7366 73.6138C29.7762 73.7727 29.6176 73.6535 29.6176 73.3393C29.6176 73.0215 29.6176 73.0215 29.5815 72.7073C29.5383 72.3895 29.6969 72.5881 29.5022 72.2703C29.3039 71.9561 29.4626 71.9164 29.2643 71.6383C29.066 71.3602 28.9073 71.0857 28.8316 70.8474C28.7487 70.6126 28.5936 70.5332 28.5143 70.2551C28.435 69.9806 28.5143 69.9806 28.435 69.5833C28.3557 69.1897 28.3953 69.1102 28.2763 68.8321C28.1574 68.5577 28.1213 67.8859 27.9627 67.7667C27.804 67.6476 27.7644 67.3731 27.566 67.2142C27.3713 67.0553 27.173 66.9758 27.0541 66.7772C26.9387 66.5822 26.7368 66.3041 26.7368 66.3041Z" fill="#FF4A3D"/>
</g>
<defs>
<clipPath id="clip0">
<rect width="100" height="105.442" fill="white"/>
</clipPath>
</defs>
</svg>
